<svg xmlns="http://www.w3.org/2000/svg" viewBox="0 0 260 170" role="img" aria-label="coffee cup">
  <defs>
    <linearGradient id="ceramic" x1="53" x2="205" y1="48" y2="137" gradientUnits="userSpaceOnUse">
      <stop offset="0" stop-color="#fff9ec"/>
      <stop offset=".55" stop-color="#ead4ad"/>
      <stop offset="1" stop-color="#c9a375"/>
    </linearGradient>
    <radialGradient id="coffee" cx="50%" cy="45%" r="64%">
      <stop offset="0" stop-color="#f5d99d"/>
      <stop offset=".48" stop-color="#c8863a"/>
      <stop offset="1" stop-color="#7b3d16"/>
    </radialGradient>
    <filter id="cupShadow" x="-20%" y="-20%" width="150%" height="150%">
      <feDropShadow dx="0" dy="13" stdDeviation="10" flood-color="#6b3d2e" flood-opacity=".2"/>
    </filter>
  </defs>
  <ellipse cx="122" cy="146" rx="92" ry="12" fill="#6b3d2e" opacity=".13"/>
  <path d="M55 62h132c0 48-20 84-66 84S55 110 55 62Z" fill="url(#ceramic)" stroke="#d8b37a" stroke-width="3" filter="url(#cupShadow)"/>
  <ellipse cx="121" cy="62" rx="68" ry="27" fill="#fff6e5" stroke="#d8b37a" stroke-width="3"/>
  <ellipse cx="121" cy="63" rx="55" ry="18" fill="url(#coffee)"/>
  <path d="M187 75c30-4 52 7 51 30-1 23-24 34-50 23" fill="none" stroke="#d3ad79" stroke-width="14" stroke-linecap="round"/>
  <path d="M187 79c22-3 37 5 36 21-1 15-16 22-34 15" fill="none" stroke="#fff4df" stroke-width="8" stroke-linecap="round"/>
  <g fill="none" stroke="#fff5df" stroke-linecap="round" stroke-linejoin="round" stroke-width="4">
    <path d="M89 60c18-18 39-19 63 0"/>
    <path d="M101 61c9-9 18-10 28 0"/>
    <path d="M132 61c10-9 19-9 29 0"/>
  </g>
  <g fill="#6b3d2e" opacity=".72">
    <ellipse cx="70" cy="147" rx="8" ry="5" transform="rotate(16 70 147)"/>
    <ellipse cx="91" cy="151" rx="7" ry="5" transform="rotate(-18 91 151)"/>
  </g>
  <g fill="#9f7d50" opacity=".45">
    <circle cx="86" cy="89" r="2"/>
    <circle cx="150" cy="103" r="2"/>
    <circle cx="112" cy="125" r="1.7"/>
  </g>
</svg>
