<svg xmlns="http://www.w3.org/2000/svg" viewBox="0 0 310 170" role="img" aria-label="croissant">
  <defs>
    <linearGradient id="bread" x1="36" x2="260" y1="45" y2="137" gradientUnits="userSpaceOnUse">
      <stop offset="0" stop-color="#8f3f12"/>
      <stop offset=".2" stop-color="#e77f21"/>
      <stop offset=".45" stop-color="#ffbd55"/>
      <stop offset=".72" stop-color="#c86618"/>
      <stop offset="1" stop-color="#7b310f"/>
    </linearGradient>
    <radialGradient id="shine" cx="47%" cy="28%" r="62%">
      <stop offset="0" stop-color="#ffe1a2" stop-opacity=".8"/>
      <stop offset=".45" stop-color="#f6a739" stop-opacity=".55"/>
      <stop offset="1" stop-color="#7c300c" stop-opacity=".2"/>
    </radialGradient>
    <filter id="crumbShadow" x="-15%" y="-20%" width="130%" height="145%">
      <feDropShadow dx="0" dy="12" stdDeviation="9" flood-color="#5d2d18" flood-opacity=".25"/>
    </filter>
  </defs>
  <ellipse cx="155" cy="148" rx="112" ry="13" fill="#6b3d2e" opacity=".13"/>
  <path d="M29 119c22-58 77-97 129-96 55 1 106 41 124 97-32-22-56-28-84-24-18 3-31 13-42 25-11-12-24-22-43-25-27-4-51 3-84 23Z" fill="url(#bread)" filter="url(#crumbShadow)"/>
  <path d="M61 109c18-38 50-63 87-68 14 16 20 38 17 69-28-26-60-25-104-1Z" fill="url(#shine)" opacity=".95"/>
  <path d="M127 103c3-37 14-61 32-76 23 13 37 40 41 78-29-20-48-20-73-2Z" fill="url(#shine)" opacity=".92"/>
  <path d="M193 108c-4-30 1-52 16-68 31 11 54 36 66 69-39-21-60-23-82-1Z" fill="url(#shine)" opacity=".88"/>
  <path d="M42 119c-12 10-23 13-34 8 8-17 23-29 46-37" fill="#b45415"/>
  <path d="M267 91c22 8 36 21 43 38-12 4-24 1-36-9" fill="#a34814"/>
  <g fill="none" stroke="#fff0b7" stroke-linecap="round" stroke-width="5" opacity=".45">
    <path d="M79 93c20-23 42-36 66-39"/>
    <path d="M149 86c8-22 19-37 34-45"/>
    <path d="M202 91c15-16 33-25 53-27"/>
  </g>
  <g fill="#9a4615" opacity=".5">
    <circle cx="107" cy="123" r="4"/>
    <circle cx="133" cy="130" r="3"/>
    <circle cx="218" cy="124" r="4"/>
    <circle cx="237" cy="111" r="3"/>
  </g>
</svg>
