<svg xmlns="http://www.w3.org/2000/svg" viewBox="0 0 180 150" role="img" aria-label="floral ornament">
  <defs>
    <linearGradient id="stemGold" x1="22" x2="150" y1="125" y2="18" gradientUnits="userSpaceOnUse">
      <stop offset="0" stop-color="#b9822d"/>
      <stop offset=".52" stop-color="#d8ad5a"/>
      <stop offset="1" stop-color="#f0cf87"/>
    </linearGradient>
    <linearGradient id="leafFill" x1="26" x2="154" y1="113" y2="24" gradientUnits="userSpaceOnUse">
      <stop offset="0" stop-color="#b98a3c" stop-opacity=".28"/>
      <stop offset=".55" stop-color="#d9b563" stop-opacity=".34"/>
      <stop offset="1" stop-color="#f4d99a" stop-opacity=".42"/>
    </linearGradient>
  </defs>
  <g fill="none" stroke-linecap="round" stroke-linejoin="round">
    <path d="M20 126C58 102 88 78 112 49c14-17 26-29 45-37" stroke="url(#stemGold)" stroke-width="3.2"/>
    <path d="M63 92c-10-23-5-43 15-60" stroke="#d2a95c" stroke-width="1.7" opacity=".7"/>
    <path d="M94 66c-2-22 7-39 29-52" stroke="#d2a95c" stroke-width="1.7" opacity=".62"/>
    <path d="M110 53c17-5 31-15 42-31" stroke="#d2a95c" stroke-width="1.7" opacity=".68"/>
    <path d="M41 112c17 4 32 1 45-9" stroke="#c89543" stroke-width="1.8" opacity=".58"/>
  </g>
  <g fill="url(#leafFill)" stroke="#c99544" stroke-width="1.5">
    <path d="M43 108c-14-8-21-20-20-36 16 1 28 10 36 27-4 5-9 8-16 9Z"/>
    <path d="M68 87c-13-12-17-27-10-44 17 7 26 20 28 39-5 4-11 6-18 5Z"/>
    <path d="M93 63c-7-16-4-31 9-45 13 12 18 27 12 44-6 3-13 4-21 1Z"/>
    <path d="M120 42c8-14 20-21 36-21-2 17-11 29-27 36-5-3-8-8-9-15Z"/>
    <path d="M55 101c14-1 26-8 37-20 4 15 0 27-12 38-12-2-20-8-25-18Z"/>
    <path d="M88 73c15 0 28-7 40-20 2 17-4 30-19 39-10-3-17-9-21-19Z"/>
  </g>
  <g fill="#f8df9e" stroke="#c58d37" stroke-width="1.4">
    <circle cx="153" cy="16" r="5"/>
    <circle cx="157" cy="29" r="3.4" opacity=".9"/>
    <circle cx="133" cy="36" r="3.2" opacity=".85"/>
    <circle cx="77" cy="30" r="3" opacity=".78"/>
  </g>
  <g fill="none" stroke="#f3d794" stroke-linecap="round" stroke-width="1.4" opacity=".72">
    <path d="M18 126c17 1 31-3 43-13"/>
    <path d="M121 43c12 3 24 1 35-6"/>
  </g>
</svg>
