<svg xmlns="http://www.w3.org/2000/svg" viewBox="0 0 150 170" role="img" aria-label="decorative vase with leaves">
  <defs>
    <linearGradient id="vase" x1="41" x2="118" y1="82" y2="160" gradientUnits="userSpaceOnUse">
      <stop offset="0" stop-color="#f4dfbb"/>
      <stop offset=".6" stop-color="#cfa36c"/>
      <stop offset="1" stop-color="#8b5e3c"/>
    </linearGradient>
    <filter id="softShadow" x="-30%" y="-30%" width="160%" height="160%">
      <feDropShadow dx="0" dy="9" stdDeviation="9" flood-color="#6b3d2e" flood-opacity=".2"/>
    </filter>
  </defs>
  <g fill="none" stroke="#7b7c58" stroke-linecap="round" stroke-width="4">
    <path d="M75 92C66 54 58 26 42 8"/>
    <path d="M80 92c6-35 19-58 39-75"/>
    <path d="M76 94C58 62 36 45 12 41"/>
    <path d="M81 93c24-26 45-37 62-31"/>
  </g>
  <g fill="#8a8e60" opacity=".88">
    <ellipse cx="36" cy="21" rx="10" ry="20" transform="rotate(-38 36 21)"/>
    <ellipse cx="55" cy="44" rx="10" ry="20" transform="rotate(-25 55 44)"/>
    <ellipse cx="111" cy="31" rx="11" ry="21" transform="rotate(42 111 31)"/>
    <ellipse cx="102" cy="57" rx="10" ry="18" transform="rotate(28 102 57)"/>
    <ellipse cx="28" cy="48" rx="10" ry="20" transform="rotate(-72 28 48)"/>
    <ellipse cx="125" cy="66" rx="10" ry="19" transform="rotate(72 125 66)"/>
  </g>
  <path d="M45 83h61c4 0 7 4 6 8l-12 56c-2 9-9 15-18 15H68c-9 0-17-6-19-15L38 91c-1-4 2-8 7-8Z" fill="url(#vase)" filter="url(#softShadow)"/>
  <ellipse cx="75" cy="85" rx="37" ry="11" fill="#f5e5ca"/>
  <ellipse cx="75" cy="86" rx="25" ry="6" fill="#9b7044" opacity=".45"/>
  <path d="M54 106c10 5 28 6 43 0" fill="none" stroke="#fff5df" stroke-opacity=".36" stroke-width="3"/>
</svg>
