<svg xmlns="http://www.w3.org/2000/svg" viewBox="0 0 160 185" role="img" aria-label="decorative vase with leaves">
  <defs>
    <linearGradient id="stoneVase" x1="43" x2="118" y1="84" y2="170" gradientUnits="userSpaceOnUse">
      <stop offset="0" stop-color="#f5dfbd"/>
      <stop offset=".52" stop-color="#cfa36d"/>
      <stop offset="1" stop-color="#8f6040"/>
    </linearGradient>
    <linearGradient id="leafGreen" x1="22" x2="130" y1="15" y2="112" gradientUnits="userSpaceOnUse">
      <stop offset="0" stop-color="#8b9968"/>
      <stop offset=".55" stop-color="#677955"/>
      <stop offset="1" stop-color="#465d42"/>
    </linearGradient>
    <filter id="softVaseShadow" x="-30%" y="-25%" width="160%" height="155%">
      <feDropShadow dx="0" dy="11" stdDeviation="8" flood-color="#5d3522" flood-opacity=".2"/>
    </filter>
  </defs>

  <ellipse cx="78" cy="170" rx="42" ry="8" fill="#6b3d2e" opacity=".12"/>

  <g fill="none" stroke="#667a55" stroke-linecap="round" stroke-width="3.4">
    <path d="M77 94C68 59 55 31 34 12"/>
    <path d="M81 96c2-38 13-66 35-88"/>
    <path d="M77 96C58 70 37 55 13 53"/>
    <path d="M83 96c21-24 43-35 63-31"/>
    <path d="M79 94C75 69 78 46 91 27"/>
  </g>

  <g fill="url(#leafGreen)" opacity=".9">
    <ellipse cx="32" cy="27" rx="9" ry="18" transform="rotate(-42 32 27)"/>
    <ellipse cx="53" cy="49" rx="9" ry="19" transform="rotate(-24 53 49)"/>
    <ellipse cx="27" cy="62" rx="10" ry="19" transform="rotate(-73 27 62)"/>
    <ellipse cx="107" cy="30" rx="10" ry="20" transform="rotate(39 107 30)"/>
    <ellipse cx="100" cy="58" rx="9" ry="18" transform="rotate(25 100 58)"/>
    <ellipse cx="131" cy="68" rx="10" ry="18" transform="rotate(76 131 68)"/>
  </g>

  <g filter="url(#softVaseShadow)">
    <path d="M50 84h57c4 0 7 4 6 8l-11 60c-2 10-10 17-20 17H71c-10 0-18-7-20-17L39 92c-1-4 2-8 6-8h5Z" fill="url(#stoneVase)"/>
    <ellipse cx="76" cy="85" rx="36" ry="11" fill="#f6e7cf"/>
    <ellipse cx="76" cy="86" rx="24" ry="5.6" fill="#92704d" opacity=".42"/>
    <path d="M55 105c11 6 31 6 44 0" fill="none" stroke="#fff6e5" stroke-opacity=".42" stroke-width="3"/>
    <path d="M58 127c12 5 27 5 39 0" fill="none" stroke="#765036" stroke-opacity=".22" stroke-width="2"/>
    <g fill="#805c42" opacity=".24">
      <circle cx="62" cy="116" r="1.8"/>
      <circle cx="96" cy="117" r="1.6"/>
      <circle cx="73" cy="143" r="1.5"/>
    </g>
  </g>
</svg>
